P3
2 3
255
0 0 0 0 0 0 0 0 0
0 0 0 0 0 0 229 255 25
